<?xml version="1.0" encoding="UTF-8" standalone="no"?>
<!-- Created with Inkscape (http://www.inkscape.org/) -->

<svg
   width="100mm"
   height="100mm"
   viewBox="-5 -5 110 110"
   version="1.1"
   id="svg1"
   xml:space="preserve"
   sodipodi:docname="cd-grey.svg"
   inkscape:version="1.4 (e7c3feb100, 2024-10-09)"
   inkscape:export-filename="cd-grey.png"
   inkscape:export-xdpi="96"
   inkscape:export-ydpi="96"
   xmlns:inkscape="http://www.inkscape.org/namespaces/inkscape"
   xmlns:sodipodi="http://sodipodi.sourceforge.net/DTD/sodipodi-0.dtd"
   xmlns:xlink="http://www.w3.org/1999/xlink"
   xmlns="http://www.w3.org/2000/svg"
   xmlns:svg="http://www.w3.org/2000/svg"><sodipodi:namedview
     id="namedview1"
     pagecolor="#ffffff"
     bordercolor="#999999"
     borderopacity="1"
     inkscape:showpageshadow="2"
     inkscape:pageopacity="0"
     inkscape:pagecheckerboard="0"
     inkscape:deskcolor="#d1d1d1"
     inkscape:document-units="mm"
     inkscape:zoom="1.4179331"
     inkscape:cx="133.64524"
     inkscape:cy="208.40194"
     inkscape:window-width="1920"
     inkscape:window-height="1052"
     inkscape:window-x="0"
     inkscape:window-y="0"
     inkscape:window-maximized="1"
     inkscape:current-layer="svg1" /><defs
     id="defs1"><linearGradient
       id="swatch2"
       inkscape:swatch="solid"><stop
         style="stop-color:#aaaaaa;stop-opacity:1;"
         offset="0"
         id="stop2" /></linearGradient><linearGradient
       id="swatch1"
       inkscape:swatch="solid"><stop
         style="stop-color:#aaaaaa;stop-opacity:1;"
         offset="0"
         id="stop1" /></linearGradient><pattern
       patternUnits="userSpaceOnUse"
       width="297.26374"
       height="297.26375"
       patternTransform="translate(248.191,412.62797)"
       preserveAspectRatio="xMidYMid"
       id="pattern4"><path
         id="path6"
         clip-path="none"
         style="fill:none;stroke:#aaaaaa;stroke-width:41.9331;stroke-linecap:round;stroke-linejoin:round"
         d="M 276.29718,148.63187 A 127.66531,127.66531 0 0 1 148.63186,276.2972 127.66531,127.66531 0 0 1 20.966551,148.63187 127.66531,127.66531 0 0 1 148.63186,20.966551 127.66531,127.66531 0 0 1 276.29718,148.63187 Z" /></pattern><pattern
       patternUnits="userSpaceOnUse"
       width="128.86224"
       height="128.86223"
       patternTransform="translate(439.43648,496.8378)"
       preserveAspectRatio="xMidYMid"
       id="pattern5"><path
         id="circle12"
         clip-path="none"
         style="fill:none;stroke:#aaaaaa;stroke-width:41.9331;stroke-linecap:round;stroke-linejoin:round"
         d="M 107.89569,64.431117 A 43.464567,43.464567 0 0 1 64.43112,107.89568 43.464567,43.464567 0 0 1 20.966551,64.431117 43.464567,43.464567 0 0 1 64.43112,20.966551 43.464567,43.464567 0 0 1 107.89569,64.431117 Z" /></pattern><linearGradient
       inkscape:collect="always"
       xlink:href="#swatch1"
       id="linearGradient1"
       x1="98.892715"
       y1="148.5"
       x2="111.09272"
       y2="148.5"
       gradientUnits="userSpaceOnUse" /><linearGradient
       inkscape:collect="always"
       xlink:href="#swatch2"
       id="linearGradient2"
       x1="133.2328"
       y1="148.5"
       x2="144.33279"
       y2="148.5"
       gradientUnits="userSpaceOnUse" /></defs><g
     id="g5"
     transform="translate(-55.000055,-98.500238)"><path
       id="rect4"
       style="fill:url(#pattern4);stroke:none"
       d="M 248.19141,412.62891 V 709.89259 H 449.2129 V 412.62891 Z"
       transform="scale(0.26458333)" /><path
       id="path3"
       style="fill:url(#linearGradient1);stroke-width:0;stroke-linecap:round;stroke-linejoin:round"
       d="m 111.09272,148.5 a 6.0999999,6.0999999 0 0 1 -6.1,6.1 6.0999999,6.0999999 0 0 1 -6.100001,-6.1 6.0999999,6.0999999 0 0 1 6.100001,-6.1 6.0999999,6.0999999 0 0 1 6.1,6.1 z" /><path
       id="rect9"
       style="fill:url(#linearGradient2);stroke-width:0;stroke-linecap:round;stroke-linejoin:round"
       d="m 133.2328,109.175 h 11.1 v 78.65 h -11.1 z" /><path
       id="rect5"
       style="fill:url(#pattern5);stroke:none"
       d="m 439.43555,496.8379 v 128.84375 h 64.42383 V 496.8379 Z"
       transform="scale(0.26458333)" /></g></svg>
